<svg width="340" height="200" viewBox="0 0 340 200" fill="none" xmlns="http://www.w3.org/2000/svg">
<g clip-path="url(#clip0)">
<path d="M63.723 157.266C63.723 174.862 49.4582 189.127 31.8615 189.127C14.2649 189.127 0 174.862 0 157.266C0 139.669 14.2649 125.404 31.8615 125.404C49.4582 125.404 63.723 139.669 63.723 157.266Z" fill="white"/>
<path d="M38.6848 52.4115C38.6848 61.8955 30.6982 69.882 21.2143 69.882C11.7303 69.882 3.74377 61.8955 3.74377 52.4115H1.49756V67.8854C1.49756 78.6172 10.3576 87.3525 21.2143 87.3525C32.0709 87.3525 40.931 78.6172 40.931 67.8854V0H38.6848V52.4115Z" fill="white"/>
<path d="M43.9064 17.4705V34.941H63.6231C72.7327 34.941 80.4697 42.4284 81.0936 51.4132H43.9064V67.8854C43.9064 78.6172 52.7664 87.3525 63.6231 87.3525H83.3398V36.9376C83.3398 26.2058 74.4798 17.4705 63.6231 17.4705H43.9064ZM63.6231 69.882C54.5135 69.882 46.9014 62.6442 46.1526 53.6594H81.0936V69.882H63.6231Z" fill="white"/>
<path d="M88.5615 52.4115C88.5615 42.9275 96.548 34.941 106.032 34.941H125.749V17.4705H106.032C95.1753 17.4705 86.3153 26.2058 86.3153 36.9376V87.4773H88.5615V52.4115Z" fill="white"/>
<path d="M147.222 17.4705C136.366 17.4705 127.505 26.2058 127.505 36.9376V67.8854C127.505 78.6172 136.366 87.3525 147.222 87.3525H166.939V69.882H147.222C138.113 69.882 130.376 62.3946 129.752 53.4098H166.939V36.9376C166.939 26.2058 158.079 17.4705 147.222 17.4705ZM129.752 51.1636C130.5 42.1788 138.113 34.941 147.222 34.941C156.332 34.941 163.944 42.1788 164.693 51.1636H129.752Z" fill="white"/>
<path d="M207.102 17.4705H189.631C178.774 17.4705 169.914 26.2058 169.914 36.9376V67.8854C169.914 78.6172 178.774 87.3525 189.631 87.3525C200.488 87.3525 209.348 78.6172 209.348 67.8854V0H207.102V17.4705ZM207.102 52.4115C207.102 61.8955 199.115 69.882 189.631 69.882C180.147 69.882 172.161 61.8955 172.161 52.4115C172.161 42.9275 180.147 34.941 189.631 34.941H207.102V52.4115Z" fill="white"/>
<path d="M94.418 147.252L128.361 112.311H125.366L91.1735 147.252V112.311H88.9272V199.663H91.1735V164.722H108.644C118.128 164.722 126.114 172.709 126.114 182.193V199.663H128.361V166.719C128.361 155.987 119.501 147.252 108.644 147.252H94.418Z" fill="white"/>
<path d="M149.93 117.302V125.788H152.176V117.302H149.93ZM170.77 129.781H131.336V147.252H149.93V182.193H131.336V199.663H170.77V182.193H152.176V147.252H170.77V129.781Z" fill="white"/>
<path d="M213.178 129.781H175.991V112.311H173.745V180.196C173.745 190.928 182.605 199.663 193.462 199.663H213.178V182.193H193.462C183.978 182.193 175.991 174.206 175.991 164.722V147.252H213.178V129.781Z" fill="white"/>
<path d="M216.154 129.781V147.252H235.871C244.98 147.252 252.717 154.739 253.341 163.724H216.154V180.196C216.154 190.928 225.014 199.663 235.871 199.663H255.587V149.248C255.587 138.516 246.727 129.781 235.871 129.781H216.154ZM235.871 182.193C226.761 182.193 219.149 174.955 218.4 165.97H253.341V182.193H235.871Z" fill="white"/>
<path d="M295.75 129.781H278.279C267.423 129.781 258.563 138.516 258.563 149.248V180.196C258.563 190.928 267.423 199.663 278.279 199.663C289.136 199.663 297.996 190.928 297.996 180.196V112.311H295.75V129.781ZM295.75 164.722C295.75 174.206 287.763 182.193 278.279 182.193C268.795 182.193 260.809 174.206 260.809 164.722C260.809 155.238 268.795 147.252 278.279 147.252H295.75V164.722Z" fill="white"/>
<path d="M320.688 129.781C309.832 129.781 300.971 138.516 300.971 149.248V180.196C300.971 190.928 309.832 199.663 320.688 199.663H340.405V182.193H320.688C311.579 182.193 303.842 174.705 303.218 165.72H340.405V149.248C340.405 138.516 331.545 129.781 320.688 129.781ZM303.218 163.474C303.966 154.489 311.579 147.252 320.688 147.252C329.798 147.252 337.41 154.489 338.159 163.474H303.218Z" fill="white"/>
<path d="M232.572 37.4365H235.432L236.001 35.4449H239.55L240.119 37.4365H243.369L239.969 26.7296H236.001L232.572 37.4365ZM237.783 29.2154L238.951 33.3335H236.6L237.783 29.2154Z" fill="white"/>
<path d="M244.358 37.4365H247.038V33.7228C247.038 32.4649 247.937 31.9558 249.569 32.0007V29.4999C248.356 29.485 247.533 29.9941 247.038 31.1621V29.6048H244.358V37.4365Z" fill="white"/>
<path d="M254.024 37.6162C254.653 37.6162 255.162 37.4814 255.507 37.3916V35.355C255.267 35.4449 255.042 35.4898 254.743 35.4898C254.234 35.4898 253.949 35.2352 253.949 34.6662V31.4317H255.492V29.6048H253.949V27.9725H251.269V29.6048H250.325V31.4317H251.269V34.9208C251.269 36.7627 252.257 37.6162 254.024 37.6162Z" fill="white"/>
<path d="M256.804 37.4365H259.485V29.6048H256.804V37.4365ZM258.137 28.856C258.976 28.856 259.62 28.272 259.62 27.4783C259.62 26.6847 258.976 26.0857 258.137 26.0857C257.299 26.0857 256.67 26.6847 256.67 27.4783C256.67 28.272 257.299 28.856 258.137 28.856Z" fill="white"/>
<path d="M264.216 37.6162C266.387 37.6162 267.765 36.7776 267.765 34.9208C267.765 33.2436 266.717 32.6746 264.545 32.405C263.587 32.2852 263.227 32.1355 263.227 31.7611C263.227 31.4017 263.527 31.1471 264.111 31.1471C264.725 31.1471 265.009 31.4017 265.114 31.9258H267.54C267.36 30.054 266.013 29.3951 264.081 29.3951C262.269 29.3951 260.727 30.2337 260.727 31.9708C260.727 33.603 261.61 34.217 263.707 34.4865C264.785 34.6363 265.159 34.8159 265.159 35.1903C265.159 35.5797 264.86 35.8342 264.201 35.8342C263.437 35.8342 263.183 35.5198 263.093 34.9507H260.622C260.682 36.6878 261.985 37.6162 264.216 37.6162Z" fill="white"/>
<path d="M271.967 37.6162C272.596 37.6162 273.106 37.4814 273.45 37.3916V35.355C273.21 35.4449 272.986 35.4898 272.686 35.4898C272.177 35.4898 271.893 35.2352 271.893 34.6662V31.4317H273.435V29.6048H271.893V27.9725H269.212V29.6048H268.269V31.4317H269.212V34.9208C269.212 36.7627 270.2 37.6162 271.967 37.6162Z" fill="white"/>
<path d="M279.828 37.6162C281.086 37.6162 281.775 37.0921 282.149 36.5231V37.4365H284.755V32.3601C284.755 30.2786 283.377 29.3951 281.221 29.3951C279.079 29.3951 277.597 30.3235 277.477 32.2104H279.993C280.053 31.7162 280.322 31.2819 281.056 31.2819C281.91 31.2819 282.089 31.7761 282.089 32.5248V32.7045H281.341C278.735 32.7045 277.178 33.4233 277.178 35.2652C277.178 36.9274 278.421 37.6162 279.828 37.6162ZM280.757 35.8043C280.128 35.8043 279.828 35.5198 279.828 35.0705C279.828 34.4266 280.307 34.217 281.386 34.217H282.089V34.6962C282.089 35.37 281.52 35.8043 280.757 35.8043Z" fill="white"/>
<path d="M286.284 37.4365H288.965V33.0489C288.965 32.0456 289.504 31.5664 290.297 31.5664C291.076 31.5664 291.421 32.0007 291.421 32.8842V37.4365H294.101V32.3451C294.101 30.3385 293.053 29.3951 291.54 29.3951C290.238 29.3951 289.384 30.054 288.965 30.8626V29.6048H286.284V37.4365Z" fill="white"/>
<path d="M298.534 37.6162C299.717 37.6162 300.585 36.9723 300.975 36.1637V37.4365H303.655V26.1606H300.975V30.7129C300.525 29.9192 299.792 29.3951 298.564 29.3951C296.707 29.3951 295.239 30.8177 295.239 33.4832V33.603C295.239 36.3134 296.722 37.6162 298.534 37.6162ZM299.477 35.5647C298.549 35.5647 297.965 34.8908 297.965 33.573V33.4533C297.965 32.0906 298.504 31.4167 299.507 31.4167C300.496 31.4167 301.05 32.1205 301.05 33.4383V33.5581C301.05 34.8908 300.451 35.5647 299.477 35.5647Z" fill="white"/>
<path d="M236.076 53.6162C237.259 53.6162 238.127 52.9723 238.517 52.1637V53.4365H241.197V42.1606H238.517V46.7129C238.067 45.9192 237.334 45.3951 236.106 45.3951C234.249 45.3951 232.781 46.8177 232.781 49.4832V49.603C232.781 52.3134 234.264 53.6162 236.076 53.6162ZM237.019 51.5647C236.091 51.5647 235.507 50.8908 235.507 49.573V49.4533C235.507 48.0906 236.046 47.4167 237.049 47.4167C238.038 47.4167 238.592 48.1205 238.592 49.4383V49.5581C238.592 50.8908 237.993 51.5647 237.019 51.5647Z" fill="white"/>
<path d="M246.612 53.6162C248.978 53.6162 250.341 52.6129 250.58 50.8459H248.065C247.96 51.37 247.585 51.7743 246.702 51.7743C245.744 51.7743 245.145 51.1753 245.07 50.1421H250.58V49.4383C250.58 46.623 248.738 45.3951 246.597 45.3951C244.231 45.3951 242.359 46.9824 242.359 49.4982V49.618C242.359 52.1786 244.156 53.6162 246.612 53.6162ZM245.1 48.6296C245.234 47.6862 245.788 47.1621 246.597 47.1621C247.466 47.1621 247.93 47.6862 247.975 48.6296H245.1Z" fill="white"/>
<path d="M254.871 53.6162C257.043 53.6162 258.42 52.7776 258.42 50.9208C258.42 49.2436 257.372 48.6746 255.201 48.405C254.242 48.2852 253.883 48.1355 253.883 47.7611C253.883 47.4017 254.182 47.1471 254.766 47.1471C255.38 47.1471 255.665 47.4017 255.77 47.9258H258.196C258.016 46.054 256.668 45.3951 254.736 45.3951C252.925 45.3951 251.382 46.2337 251.382 47.9708C251.382 49.603 252.266 50.217 254.362 50.4865C255.44 50.6363 255.815 50.816 255.815 51.1903C255.815 51.5797 255.515 51.8342 254.856 51.8342C254.093 51.8342 253.838 51.5198 253.748 50.9507H251.277C251.337 52.6878 252.64 53.6162 254.871 53.6162Z" fill="white"/>
<path d="M259.583 53.4365H262.263V45.6048H259.583V53.4365ZM260.916 44.856C261.754 44.856 262.398 44.272 262.398 43.4783C262.398 42.6847 261.754 42.0857 260.916 42.0857C260.077 42.0857 259.448 42.6847 259.448 43.4783C259.448 44.272 260.077 44.856 260.916 44.856Z" fill="white"/>
<path d="M267.593 56.3416C270.394 56.3416 271.936 55.1137 271.936 52.7776V45.6048H269.255V46.7129C268.806 45.9192 268.072 45.3951 266.83 45.3951C264.988 45.3951 263.505 46.8626 263.505 49.1687V49.2885C263.505 51.6995 265.003 53.0472 266.83 53.0472C267.998 53.0472 268.851 52.3583 269.255 51.6096V52.8076C269.255 53.7809 268.776 54.4548 267.593 54.4548C266.62 54.4548 266.276 54.0056 266.156 53.4365H263.49C263.7 55.2185 264.928 56.3416 267.593 56.3416ZM267.773 51.0705C266.815 51.0705 266.246 50.3817 266.246 49.3035V49.1837C266.246 48.1055 266.785 47.4017 267.788 47.4017C268.776 47.4017 269.33 48.0906 269.33 49.1687V49.2736C269.33 50.3817 268.731 51.0705 267.773 51.0705Z" fill="white"/>
<path d="M273.518 53.4365H276.198V49.0489C276.198 48.0456 276.737 47.5664 277.531 47.5664C278.31 47.5664 278.654 48.0007 278.654 48.8842V53.4365H281.334V48.3451C281.334 46.3385 280.286 45.3951 278.774 45.3951C277.471 45.3951 276.617 46.054 276.198 46.8626V45.6048H273.518V53.4365Z" fill="white"/>
<path d="M286.696 53.6162C289.062 53.6162 290.424 52.6129 290.664 50.8459H288.148C288.043 51.37 287.669 51.7743 286.786 51.7743C285.827 51.7743 285.228 51.1753 285.153 50.1421H290.664V49.4383C290.664 46.623 288.822 45.3951 286.681 45.3951C284.315 45.3951 282.443 46.9824 282.443 49.4982V49.618C282.443 52.1786 284.24 53.6162 286.696 53.6162ZM285.183 48.6296C285.318 47.6862 285.872 47.1621 286.681 47.1621C287.549 47.1621 288.014 47.6862 288.058 48.6296H285.183Z" fill="white"/>
<path d="M291.812 53.4365H294.492V49.7228C294.492 48.4649 295.391 47.9558 297.023 48.0007V45.4999C295.81 45.485 294.987 45.9941 294.492 47.1621V45.6048H291.812V53.4365Z" fill="white"/>
<path d="M238.277 69.6162C240.119 69.6162 241.602 68.2685 241.602 65.573V65.4533C241.602 62.7728 240.119 61.3951 238.292 61.3951C237.109 61.3951 236.3 62.024 235.851 62.7728V58.1606H233.171V69.4365H235.851V68.2236C236.241 69.0622 237.109 69.6162 238.277 69.6162ZM237.334 67.5647C236.36 67.5647 235.776 66.8908 235.776 65.5581V65.4383C235.776 64.1205 236.36 63.4167 237.334 63.4167C238.277 63.4167 238.876 64.0756 238.876 65.4533V65.573C238.876 66.8609 238.337 67.5647 237.334 67.5647Z" fill="white"/>
<path d="M244.994 69.6162C246.252 69.6162 246.941 69.0921 247.316 68.5231V69.4365H249.921V64.3601C249.921 62.2786 248.543 61.3951 246.387 61.3951C244.246 61.3951 242.763 62.3235 242.643 64.2104H245.159C245.219 63.7162 245.489 63.2819 246.222 63.2819C247.076 63.2819 247.256 63.7761 247.256 64.5248V64.7045H246.507C243.901 64.7045 242.344 65.4233 242.344 67.2652C242.344 68.9274 243.587 69.6162 244.994 69.6162ZM245.923 67.8043C245.294 67.8043 244.994 67.5198 244.994 67.0705C244.994 66.4266 245.474 66.217 246.552 66.217H247.256V66.6962C247.256 67.37 246.687 67.8043 245.923 67.8043Z" fill="white"/>
<path d="M254.52 69.6162C256.692 69.6162 258.069 68.7776 258.069 66.9208C258.069 65.2436 257.021 64.6746 254.85 64.405C253.891 64.2852 253.532 64.1355 253.532 63.7611C253.532 63.4017 253.831 63.1471 254.415 63.1471C255.029 63.1471 255.314 63.4017 255.419 63.9258H257.845C257.665 62.054 256.317 61.3951 254.385 61.3951C252.574 61.3951 251.031 62.2337 251.031 63.9708C251.031 65.603 251.915 66.217 254.011 66.4865C255.089 66.6363 255.464 66.8159 255.464 67.1903C255.464 67.5797 255.164 67.8342 254.505 67.8342C253.742 67.8342 253.487 67.5198 253.397 66.9507H250.926C250.986 68.6878 252.289 69.6162 254.52 69.6162Z" fill="white"/>
<path d="M263.064 69.6162C265.43 69.6162 266.793 68.6129 267.032 66.8459H264.516C264.412 67.37 264.037 67.7743 263.154 67.7743C262.195 67.7743 261.596 67.1753 261.521 66.1421H267.032V65.4383C267.032 62.623 265.19 61.3951 263.049 61.3951C260.683 61.3951 258.811 62.9824 258.811 65.4982V65.618C258.811 68.1786 260.608 69.6162 263.064 69.6162ZM261.551 64.6296C261.686 63.6862 262.24 63.1621 263.049 63.1621C263.917 63.1621 264.382 63.6862 264.426 64.6296H261.551Z" fill="white"/>
<path d="M271.085 69.6162C272.268 69.6162 273.137 68.9723 273.526 68.1637V69.4365H276.206V58.1606H273.526V62.7129C273.077 61.9192 272.343 61.3951 271.115 61.3951C269.258 61.3951 267.791 62.8177 267.791 65.4832V65.603C267.791 68.3134 269.273 69.6162 271.085 69.6162ZM272.029 67.5647C271.1 67.5647 270.516 66.8908 270.516 65.573V65.4533C270.516 64.0906 271.055 63.4167 272.058 63.4167C273.047 63.4167 273.601 64.1205 273.601 65.4383V65.5581C273.601 66.8908 273.002 67.5647 272.029 67.5647Z" fill="white"/>
<path d="M280.817 69.4365H283.497V61.6047H280.817V69.4365ZM282.149 60.856C282.988 60.856 283.632 60.272 283.632 59.4783C283.632 58.6847 282.988 58.0857 282.149 58.0857C281.311 58.0857 280.682 58.6847 280.682 59.4783C280.682 60.272 281.311 60.856 282.149 60.856Z" fill="white"/>
<path d="M285.158 69.4365H287.839V65.0489C287.839 64.0456 288.378 63.5664 289.171 63.5664C289.95 63.5664 290.294 64.0007 290.294 64.8842V69.4365H292.975V64.3451C292.975 62.3385 291.927 61.3951 290.414 61.3951C289.111 61.3951 288.258 62.054 287.839 62.8626V61.6047H285.158V69.4365Z" fill="white"/>
<path d="M237.334 85.6162C240.089 85.6162 241.646 84.0139 241.646 82.0522C241.646 79.7312 240.254 79.0273 237.543 78.7279C236.211 78.5482 235.881 78.2786 235.881 77.6796C235.881 77.1405 236.3 76.7662 237.124 76.7662C237.963 76.7662 238.397 77.1555 238.502 77.9192H241.347C241.152 75.658 239.7 74.5799 237.124 74.5799C234.563 74.5799 232.976 75.9875 232.976 77.9192C232.976 80.0756 233.994 80.9741 237.019 81.3335C238.307 81.5281 238.711 81.7078 238.711 82.3667C238.711 82.9956 238.217 83.4299 237.334 83.4299C236.061 83.4299 235.716 82.801 235.642 82.0373H232.722C232.811 84.3583 234.339 85.6162 237.334 85.6162Z" fill="white"/>
<path d="M245.068 85.6162C246.325 85.6162 247.014 85.0921 247.389 84.5231V85.4365H249.994V80.3601C249.994 78.2786 248.617 77.3951 246.46 77.3951C244.319 77.3951 242.836 78.3235 242.717 80.2104H245.232C245.292 79.7162 245.562 79.2819 246.296 79.2819C247.149 79.2819 247.329 79.7761 247.329 80.5248V80.7045H246.58C243.974 80.7045 242.417 81.4233 242.417 83.2652C242.417 84.9274 243.66 85.6162 245.068 85.6162ZM245.996 83.8043C245.367 83.8043 245.068 83.5198 245.068 83.0705C245.068 82.4266 245.547 82.217 246.625 82.217H247.329V82.6962C247.329 83.37 246.76 83.8043 245.996 83.8043Z" fill="white"/>
<path d="M251.524 85.4365H254.204V81.0489C254.204 80.0456 254.743 79.5664 255.537 79.5664C256.315 79.5664 256.66 80.0007 256.66 80.8842V85.4365H259.34V80.3451C259.34 78.3385 258.292 77.3951 256.78 77.3951C255.477 77.3951 254.623 78.054 254.204 78.8626V77.6047H251.524V85.4365Z" fill="white"/>
<path d="M264.062 85.4365H267.147V81.6479H270.456V79.3867H267.147V77.1106H271.295V74.7296H264.062V85.4365Z" fill="white"/>
<path d="M272.275 85.4365H274.955V81.7228C274.955 80.4649 275.854 79.9558 277.486 80.0007V77.4999C276.273 77.485 275.449 77.9941 274.955 79.1621V77.6047H272.275V85.4365Z" fill="white"/>
<path d="M280.735 85.6162C281.993 85.6162 282.682 85.0921 283.056 84.5231V85.4365H285.662V80.3601C285.662 78.2786 284.284 77.3951 282.128 77.3951C279.986 77.3951 278.504 78.3235 278.384 80.2104H280.9C280.96 79.7162 281.229 79.2819 281.963 79.2819C282.816 79.2819 282.996 79.7761 282.996 80.5248V80.7045H282.247C279.642 80.7045 278.084 81.4233 278.084 83.2652C278.084 84.9274 279.327 85.6162 280.735 85.6162ZM281.663 83.8043C281.034 83.8043 280.735 83.5198 280.735 83.0705C280.735 82.4266 281.214 82.217 282.292 82.217H282.996V82.6962C282.996 83.37 282.427 83.8043 281.663 83.8043Z" fill="white"/>
<path d="M287.191 85.4365H289.871V81.0489C289.871 80.0456 290.41 79.5664 291.204 79.5664C291.983 79.5664 292.327 80.0007 292.327 80.8842V85.4365H295.008V80.3451C295.008 78.3385 293.959 77.3951 292.447 77.3951C291.144 77.3951 290.291 78.054 289.871 78.8626V77.6047H287.191V85.4365Z" fill="white"/>
<path d="M300.234 85.6162C302.765 85.6162 304.098 84.3284 304.173 82.3517H301.762C301.672 83.2053 301.148 83.6545 300.399 83.6545C299.381 83.6545 298.857 82.9507 298.857 81.588V81.4682C298.857 80.1504 299.411 79.4766 300.354 79.4766C301.133 79.4766 301.492 79.8809 301.612 80.6147H304.128C303.978 78.2337 302.211 77.3951 300.294 77.3951C297.988 77.3951 296.116 78.8926 296.116 81.4982V81.618C296.116 84.2535 297.898 85.6162 300.234 85.6162Z" fill="white"/>
<path d="M305.341 85.4365H308.021V77.6047H305.341V85.4365ZM306.673 76.856C307.512 76.856 308.156 76.272 308.156 75.4783C308.156 74.6847 307.512 74.0857 306.673 74.0857C305.835 74.0857 305.206 74.6847 305.206 75.4783C305.206 76.272 305.835 76.856 306.673 76.856Z" fill="white"/>
<path d="M312.752 85.6162C314.923 85.6162 316.301 84.7776 316.301 82.9208C316.301 81.2436 315.253 80.6746 313.081 80.405C312.123 80.2852 311.764 80.1355 311.764 79.7611C311.764 79.4017 312.063 79.1471 312.647 79.1471C313.261 79.1471 313.546 79.4017 313.65 79.9258H316.076C315.897 78.054 314.549 77.3951 312.617 77.3951C310.805 77.3951 309.263 78.2337 309.263 79.9708C309.263 81.603 310.146 82.217 312.243 82.4865C313.321 82.6363 313.695 82.8159 313.695 83.1903C313.695 83.5797 313.396 83.8342 312.737 83.8342C311.973 83.8342 311.719 83.5198 311.629 82.9507H309.158C309.218 84.6878 310.521 85.6162 312.752 85.6162Z" fill="white"/>
<path d="M321.161 85.6162C323.691 85.6162 325.024 84.3284 325.099 82.3517H322.688C322.598 83.2053 322.074 83.6545 321.325 83.6545C320.307 83.6545 319.783 82.9507 319.783 81.588V81.4682C319.783 80.1504 320.337 79.4766 321.281 79.4766C322.059 79.4766 322.419 79.8809 322.538 80.6147H325.054C324.904 78.2337 323.137 77.3951 321.221 77.3951C318.915 77.3951 317.043 78.8926 317.043 81.4982V81.618C317.043 84.2535 318.825 85.6162 321.161 85.6162Z" fill="white"/>
<path d="M330.071 83.6246C329.038 83.6246 328.513 82.8908 328.513 81.5431V81.4233C328.513 80.1055 329.068 79.4017 330.071 79.4017C331.089 79.4017 331.613 80.1355 331.613 81.4533V81.573C331.613 82.8758 331.074 83.6246 330.071 83.6246ZM330.056 85.6162C332.467 85.6162 334.339 84.0888 334.339 81.5431V81.4233C334.339 78.9375 332.482 77.3951 330.071 77.3951C327.645 77.3951 325.773 78.9824 325.773 81.4982V81.618C325.773 84.1487 327.645 85.6162 330.056 85.6162Z" fill="white"/>
<path d="M336.638 85.6012C337.536 85.6012 338.21 84.9274 338.21 84.0888C338.21 83.2502 337.536 82.5764 336.638 82.5764C335.754 82.5764 335.11 83.2502 335.11 84.0888C335.11 84.9274 335.754 85.6012 336.638 85.6012Z" fill="white"/>
</g>
<defs>
<clipPath id="clip0">
<rect width="340" height="200" fill="white"/>
</clipPath>
</defs>
</svg>
