<svg width="125" height="125" viewBox="0 0 125 125" fill="none" xmlns="http://www.w3.org/2000/svg">
<path d="M60.7984 0.625244L68.4184 8.21524L52.1284 8.21524V8.75525L68.4184 8.75525L60.7984 16.3452L65.8384 16.3452L73.7284 8.48524L65.8384 0.625244L60.7984 0.625244Z" fill="white"/>
<path d="M97.4356 11.3288L99.139 21.9482L85.9601 12.3732L85.6427 12.81L98.8216 22.3851L88.1956 24.0466L92.273 27.009L103.276 25.2878L101.513 14.2913L97.4356 11.3288Z" fill="white"/>
<path d="M120.784 41.5228L115.92 51.1153L110.886 35.6225L110.372 35.7894L115.406 51.2821L105.833 46.3805L107.391 51.1738L117.304 56.2488L122.341 46.3161L120.784 41.5228Z" fill="white"/>
<path d="M121.925 79.674L112.352 84.5756L117.386 69.0829L116.872 68.916L111.839 84.4087L106.975 74.8163L105.417 79.6096L110.454 89.5423L120.368 84.4673L121.925 79.674Z" fill="white"/>
<path d="M100.424 111.21L89.7983 109.549L102.977 99.9737L102.66 99.5368L89.4809 109.112L91.1843 98.4925L87.1069 101.455L85.3437 112.451L96.3469 114.173L100.424 111.21Z" fill="white"/>
<path d="M64.4931 124.085L56.8731 116.495H73.1631V115.955H56.8731L64.4931 108.365H59.4531L51.5631 116.225L59.4531 124.085H64.4931Z" fill="white"/>
<path d="M27.8564 113.382L26.153 102.763L39.3319 112.338L39.6493 111.901L26.4704 102.326L37.0964 100.664L33.019 97.7017L22.0158 99.423L23.779 110.419L27.8564 113.382Z" fill="white"/>
<path d="M4.50783 83.1881L9.37164 73.5956L14.4055 89.0883L14.9191 88.9214L9.88522 73.4287L19.4584 78.3303L17.901 73.537L7.98755 68.462L2.95039 78.3947L4.50783 83.1881Z" fill="white"/>
<path d="M3.36619 45.0367L12.9394 40.1351L7.90553 55.6278L8.4191 55.7947L13.453 40.3019L18.3168 49.8944L19.8742 45.1011L14.8371 35.1684L4.92363 40.2434L3.36619 45.0367Z" fill="white"/>
<path d="M24.8672 13.5006L35.4932 15.1621L22.3143 24.7371L22.6317 25.174L35.8106 15.599L34.1072 26.2183L38.1846 23.2559L39.9478 12.2594L28.9447 10.5381L24.8672 13.5006Z" fill="white"/>
</svg>
